<?xml version="1.0" encoding="utf-8"?>
<!-- Generator: Adobe Illustrator 18.1.1, SVG Export Plug-In . SVG Version: 6.00 Build 0)  -->
<!DOCTYPE svg PUBLIC "-//W3C//DTD SVG 1.1//EN" "http://www.w3.org/Graphics/SVG/1.1/DTD/svg11.dtd">
<svg version="1.1" id="Ebene_1" xmlns="http://www.w3.org/2000/svg" xmlns:xlink="http://www.w3.org/1999/xlink" x="0px" y="0px"
	 width="41.089px" height="73.717px" viewBox="0 0 41.089 73.717" enable-background="new 0 0 41.089 73.717" xml:space="preserve">
<g>
	<g>
		<g>
			<path fill="#4D525C" d="M11.544,30.28c0-4.677-2.705-5.797-6.012-2.49L2.48,30.843c-3.307,3.308-3.307,8.721,0,12.029
				l3.052,3.053c3.307,3.308,6.012,2.188,6.012-2.489V30.28z"/>
		</g>
		<g>
			<path fill="#4D525C" d="M33.311,72.64c-0.592,0-0.835,0.242-0.539,0.539s0.781,0.296,1.077,0
				C34.146,72.882,33.903,72.64,33.311,72.64z"/>
		</g>
	</g>
	<polygon fill="#4D525C" points="3.71,29.613 3.71,44.103 33.311,73.717 41.088,65.938 12.009,36.858 41.089,7.779 33.312,0 	"/>
</g>
</svg>
